<svg width="32" height="32" viewBox="0 0 32 32" fill="none" xmlns="http://www.w3.org/2000/svg">
  <defs>
    <linearGradient id="logoGradient" x1="0%" y1="0%" x2="100%" y2="100%">
      <stop offset="0%" style="stop-color:#1A2B4C;stop-opacity:1" />
      <stop offset="100%" style="stop-color:#2D2F36;stop-opacity:1" />
    </linearGradient>
  </defs>
  <rect width="32" height="32" rx="8" fill="url(#logoGradient)"/>
  <g transform="translate(8, 8)">
    <!-- Sparkles Icon -->
    <path d="M8 2L9.5 6.5L14 8L9.5 9.5L8 14L6.5 9.5L2 8L6.5 6.5L8 2Z" fill="#FCFCFC"/>
    <path d="M12 1L12.5 2.5L14 3L12.5 3.5L12 5L11.5 3.5L10 3L11.5 2.5L12 1Z" fill="#F4A261"/>
    <path d="M4 11L4.5 12.5L6 13L4.5 13.5L4 15L3.5 13.5L2 13L3.5 12.5L4 11Z" fill="#F6C177"/>
  </g>
</svg>
